<?xml version="1.0" encoding="UTF-8" standalone="no"?>
<!-- Created with Inkscape (http://www.inkscape.org/) -->

<svg
   width="113.30879mm"
   height="15.698929mm"
   viewBox="0 0 113.30879 15.698929"
   version="1.1"
   id="svg1"
   xml:space="preserve"
   xmlns:xlink="http://www.w3.org/1999/xlink"
   xmlns="http://www.w3.org/2000/svg"
   xmlns:svg="http://www.w3.org/2000/svg"><defs
     id="defs1"><linearGradient
       id="linearGradient45"><stop
         style="stop-color:#ff5d01;stop-opacity:1;"
         offset="0"
         id="stop45" /><stop
         style="stop-color:#ff5d01;stop-opacity:1"
         offset="1"
         id="stop46" /></linearGradient><linearGradient
       xlink:href="#linearGradient45"
       id="linearGradient46"
       x1="102.04193"
       y1="235.82372"
       x2="145.0985"
       y2="235.82372"
       gradientUnits="userSpaceOnUse" /></defs><g
     id="layer1"
     transform="translate(-58.743379,-228.45522)"><g
       id="g48"><path
         id="path2-62-6"
         style="fill:#ff5d01;fill-opacity:1;stroke-width:0.157032"
         d="m 63.558009,232.71048 c -0.903342,-0.10924 -1.943534,0.13094 -2.485907,0.72354 0.03668,0.01 0.0679,0.0198 0.0994,0.0267 0.412209,0.0888 0.673789,0.42354 0.661575,0.84688 -0.0121,0.41249 -0.221038,0.63149 -0.687424,0.69521 -0.19127,0.026 -0.387088,0.0262 -0.581183,0.0289 -0.398698,0.005 -0.767186,0.10841 -1.100413,0.32499 -0.315633,0.20508 -0.5558,0.47426 -0.72068,0.8427 0.04944,-0.0147 0.06986,-0.0204 0.09009,-0.0268 0.831949,-0.27115 1.403831,-0.076 1.891415,0.64561 0.158757,0.23489 0.309263,0.47558 0.4776,0.70301 0.420688,0.56875 0.975748,0.92627 1.694332,1.01033 0.220843,0.0259 0.438702,0.0178 0.654735,-0.0292 a 7.6309295,7.6309295 0 0 1 -0.584036,-2.8873 7.6309295,7.6309295 0 0 1 0.590498,-2.9044 z m -2.485907,0.72354 h -1.91e-4 l -3.63e-4,4.3e-4 c 2.14e-4,-2.4e-4 3.63e-4,-4.3e-4 8.17e-4,-4.3e-4 z" /><path
         style="font-weight:900;font-size:44.7568px;font-family:'Cabinet Grotesk Variable';-inkscape-font-specification:'Cabinet Grotesk Variable Heavy';text-align:justify;letter-spacing:0px;fill:#1e293b;stroke-width:0.143303;paint-order:markers stroke fill"
         d="m 69.778334,240.76811 q -1.519871,0 -2.635727,-0.63488 -1.096616,-0.65412 -1.71226,-1.76998 -0.596405,-1.13509 -0.596405,-2.53953 0,-1.42368 0.596405,-2.53953 0.615644,-1.11586 1.71226,-1.75074 1.115856,-0.65412 2.635727,-0.65412 1.596828,0 2.770399,0.73108 1.173572,0.73107 1.673783,1.82769 l -2.693443,1.76998 q -0.192389,-0.73108 -0.596406,-1.09662 -0.384777,-0.36554 -1.000422,-0.36554 -0.442494,0 -0.808032,0.23087 -0.36554,0.21162 -0.577167,0.67336 -0.192389,0.44249 -0.192389,1.17357 0,0.71184 0.192389,1.17357 0.211627,0.46174 0.577167,0.6926 0.365538,0.21163 0.808032,0.21163 0.615645,0 1.000422,-0.36554 0.404017,-0.36554 0.596406,-1.09661 l 2.693443,1.76998 q -0.500211,1.09661 -1.673783,1.82769 -1.173571,0.73107 -2.770399,0.73107 z m 9.561721,0 q -1.519872,0 -2.635727,-0.63488 -1.096617,-0.65412 -1.712261,-1.76998 -0.596405,-1.13509 -0.596405,-2.53953 0,-1.42368 0.596405,-2.53953 0.615644,-1.11586 1.712261,-1.75074 1.115855,-0.65412 2.635727,-0.65412 1.596827,0 2.731921,0.65412 1.154333,0.63488 1.750738,1.75074 0.615645,1.11585 0.615645,2.53953 0,1.40444 -0.615645,2.53953 -0.596405,1.11586 -1.750738,1.76998 -1.135094,0.63488 -2.731921,0.63488 z m 0.07695,-2.77039 q 0.442494,0 0.769555,-0.19239 0.3463,-0.21163 0.538689,-0.67337 0.192389,-0.48097 0.192389,-1.30824 0,-0.82727 -0.192389,-1.289 -0.192389,-0.48097 -0.538689,-0.67336 -0.327061,-0.21163 -0.769555,-0.21163 -0.442494,0 -0.788794,0.21163 -0.327061,0.19239 -0.51945,0.67336 -0.192389,0.46173 -0.192389,1.289 0,0.82727 0.192389,1.30824 0.192389,0.46174 0.51945,0.67337 0.3463,0.19239 0.788794,0.19239 z m 21.143535,2.578 h -3.463003 v -5.30993 q 0,-0.86575 -0.23087,-1.30824 -0.21163,-0.46173 -0.92347,-0.46173 -0.44249,0 -0.71183,0.15391 -0.25011,0.15391 -0.3463,0.57717 -0.0962,0.40401 -0.0962,1.17357 l -0.0577,-1.09662 q 0.0962,-0.86575 0.40402,-1.65454 0.30782,-0.7888 0.96195,-1.26977 0.67336,-0.50021 1.80845,-0.50021 1.25053,0 1.94313,0.78879 0.711843,0.7888 0.711843,2.25095 z m -11.543342,0 h -3.462999 v -9.504 h 3.462999 z m 5.771669,0 h -3.463 v -5.30993 q 0,-0.86575 -0.23086,-1.30824 -0.21163,-0.46173 -0.92347,-0.46173 -0.4425,0 -0.711844,0.15391 -0.250106,0.15391 -0.3463,0.57717 -0.09619,0.40401 -0.09619,1.17357 l -0.05772,-1.09662 q 0.09619,-0.86575 0.404016,-1.65454 0.307823,-0.7888 0.961948,-1.26977 0.67336,-0.50021 1.80846,-0.50021 1.25052,0 1.94312,0.78879 0.71184,0.7888 0.71184,2.25095 z m 13.524943,0.19239 q -1.11586,0 -1.71226,-0.50021 -0.57717,-0.50021 -0.82727,-1.26976 -0.23087,-0.78879 -0.32706,-1.65455 l 0.0577,-1.09661 q 0,0.76955 0.17316,1.19281 0.19238,0.40402 0.50021,0.55793 0.30782,0.15391 0.67337,0.15391 0.84651,0 1.23129,-0.63489 0.38477,-0.63488 0.38477,-1.69302 0,-1.05814 -0.38477,-1.69302 -0.38478,-0.63488 -1.23129,-0.63488 -0.36554,0 -0.67337,0.15391 -0.30783,0.15391 -0.50021,0.57717 -0.17316,0.40401 -0.17316,1.17357 l -0.0577,-1.09662 q 0.0962,-0.86575 0.38477,-1.65454 0.28859,-0.7888 0.92346,-1.26977 0.63488,-0.50021 1.75074,-0.50021 1.0389,0 1.82769,0.55793 0.7888,0.55792 1.21206,1.65454 0.44249,1.09661 0.44249,2.73192 0,1.61607 -0.44249,2.73192 -0.4425,1.09662 -1.26977,1.65455 -0.82727,0.55792 -1.96236,0.55792 z m -2.80888,3.38605 h -3.463 v -13.08244 h 3.463 z"
         id="path43" /><path
         style="font-weight:900;font-size:44.7568px;font-family:'Cabinet Grotesk Variable';-inkscape-font-specification:'Cabinet Grotesk Variable Heavy';text-align:justify;letter-spacing:0px;fill:url(#linearGradient46);fill-opacity:1;stroke-width:0.143303;paint-order:markers stroke fill"
         d="m 117.70238,240.76811 q -1.51987,0 -2.63573,-0.63488 -1.09662,-0.65412 -1.71226,-1.76998 -0.5964,-1.13509 -0.5964,-2.53953 0,-1.42368 0.5964,-2.53953 0.61564,-1.11586 1.71226,-1.75074 1.11586,-0.65412 2.63573,-0.65412 1.59683,0 2.73192,0.65412 1.15434,0.63488 1.75074,1.75074 0.61565,1.11585 0.61565,2.53953 0,1.40444 -0.61565,2.53953 -0.5964,1.11586 -1.75074,1.76998 -1.13509,0.63488 -2.73192,0.63488 z m 0.077,-2.77039 q 0.44249,0 0.76955,-0.19239 0.3463,-0.21163 0.53869,-0.67337 0.19239,-0.48097 0.19239,-1.30824 0,-0.82727 -0.19239,-1.289 -0.19239,-0.48097 -0.53869,-0.67336 -0.32706,-0.21163 -0.76955,-0.21163 -0.4425,0 -0.7888,0.21163 -0.32706,0.19239 -0.51945,0.67336 -0.19239,0.46173 -0.19239,1.289 0,0.82727 0.19239,1.30824 0.19239,0.46174 0.51945,0.67337 0.3463,0.19239 0.7888,0.19239 z m 15.56424,2.578 h -3.463 v -5.30993 q 0,-0.86575 -0.23086,-1.30824 -0.23087,-0.46173 -1.01966,-0.46173 -0.50021,0 -0.76956,0.15391 -0.26934,0.15391 -0.38478,0.57717 -0.0962,0.40401 -0.0962,1.17357 l -0.0577,-1.09662 q 0.0962,-0.86575 0.42326,-1.65454 0.3463,-0.7888 1.00042,-1.26977 0.67336,-0.50021 1.75074,-0.50021 1.32748,0 2.0778,0.78879 0.76955,0.7888 0.76955,2.25095 z m -5.96405,0 h -3.463 v -9.504 h 3.463 z m 12.10123,0.19239 q -1.63531,0 -2.7704,-0.63488 -1.1351,-0.63488 -1.7315,-1.75074 -0.57717,-1.11585 -0.57717,-2.55877 0,-1.44292 0.57717,-2.55877 0.5964,-1.11586 1.65454,-1.75074 1.07738,-0.63488 2.5203,-0.63488 1.6353,0 2.65496,0.63488 1.01966,0.63488 1.50064,1.65454 0.5002,1.01966 0.5002,2.174 0,0.3463 -0.0385,0.78879 -0.0193,0.4425 -0.0577,0.61565 h -6.90677 v -1.78922 h 4.36723 l -0.46173,0.21163 q 0,-0.82727 -0.34631,-1.26977 -0.3463,-0.44249 -1.19281,-0.44249 -0.75031,0 -1.19281,0.42326 -0.42325,0.42325 -0.42325,1.26976 v 1.05814 q 0,0.65412 0.2501,1.05814 0.26935,0.38478 0.71184,0.55793 0.46174,0.17315 1.01966,0.17315 0.48097,0 0.84651,-0.0962 0.38478,-0.11543 0.67336,-0.3463 0.30783,-0.2501 0.48098,-0.65412 l 2.09703,2.00084 q -0.53868,0.71184 -1.5391,1.28901 -0.98119,0.57716 -2.61649,0.57716 z"
         id="path44" /><path
         style="font-weight:900;font-size:44.7568px;font-family:'Cabinet Grotesk Variable';-inkscape-font-specification:'Cabinet Grotesk Variable Heavy';text-align:justify;letter-spacing:0px;fill:#1e293b;stroke-width:0.143303;paint-order:markers stroke fill"
         d="m 154.52555,240.57572 h -3.463 v -5.30993 q 0,-0.86575 -0.23086,-1.30824 -0.23087,-0.46173 -1.01966,-0.46173 -0.50021,0 -0.76956,0.15391 -0.26934,0.15391 -0.38478,0.57717 -0.0962,0.40401 -0.0962,1.17357 l -0.0577,-1.09662 q 0.0962,-0.86575 0.42326,-1.65454 0.3463,-0.7888 1.00042,-1.26977 0.67336,-0.50021 1.75074,-0.50021 1.32748,0 2.0778,0.78879 0.76955,0.7888 0.76955,2.25095 z m -5.96405,0 h -3.463 v -9.504 h 3.463 z m 11.3894,0.19239 q -1.23128,0 -1.9816,-0.42325 -0.73108,-0.4425 -1.05814,-1.17357 -0.32706,-0.73108 -0.32706,-1.65455 v -7.5224 l 3.463,-1.53911 v 8.5613 q 0,0.36554 0.17315,0.55793 0.19239,0.19239 0.51945,0.19239 0.32706,0 0.65412,-0.21163 0.3463,-0.21163 0.57717,-0.57717 l 0.9427,2.59725 q -0.30782,0.3463 -1.05814,0.76956 -0.75031,0.42325 -1.90465,0.42325 z m 2.40486,-7.0799 h -7.11838 v -2.61649 h 7.11838 z m 5.75244,7.0799 q -1.09661,0 -2.0778,-0.21162 -0.98118,-0.21163 -1.75073,-0.53869 -0.75032,-0.32706 -1.23129,-0.6926 l 1.289,-2.50105 q 0.55793,0.36553 1.23129,0.69259 0.6926,0.32707 1.36596,0.51945 0.6926,0.19239 1.26977,0.19239 0.38478,0 0.57717,-0.0962 0.19239,-0.0962 0.19239,-0.28858 0,-0.21163 -0.28859,-0.34631 -0.26934,-0.13467 -1.00042,-0.32706 l -1.30824,-0.34629 q -0.96195,-0.26935 -1.65455,-0.61565 -0.67336,-0.3463 -1.01966,-0.88499 -0.3463,-0.53869 -0.3463,-1.32748 0,-1.4814 1.13509,-2.28943 1.1351,-0.80803 3.02051,-0.80803 1.57759,0 2.69344,0.46173 1.11586,0.46174 1.67378,0.88499 l -1.17357,2.46258 q -0.92346,-0.67336 -1.86617,-0.98119 -0.94271,-0.30782 -1.65454,-0.30782 -0.36554,0 -0.53869,0.11543 -0.17315,0.0962 -0.17315,0.26935 0,0.21163 0.28858,0.36554 0.28859,0.15391 1.21205,0.42325 l 0.98119,0.28859 q 1.5391,0.44249 2.30866,1.09661 0.78879,0.65413 0.78879,1.80846 0,0.88499 -0.48097,1.55835 -0.48097,0.67336 -1.36596,1.05814 -0.86575,0.36553 -2.09704,0.36553 z"
         id="path45" /></g></g></svg>
